<?xml version="1.0" encoding="UTF-8" standalone="no"?>
<!-- Created with Inkscape (http://www.inkscape.org/) -->

<svg
   xmlns:dc="http://purl.org/dc/elements/1.1/"
   xmlns:cc="http://creativecommons.org/ns#"
   xmlns:rdf="http://www.w3.org/1999/02/22-rdf-syntax-ns#"
   xmlns:svg="http://www.w3.org/2000/svg"
   xmlns="http://www.w3.org/2000/svg"
   xmlns:sodipodi="http://sodipodi.sourceforge.net/DTD/sodipodi-0.dtd"
   xmlns:inkscape="http://www.inkscape.org/namespaces/inkscape"
   width="179.04539mm"
   height="58.271378mm"
   viewBox="0 0 179.04539 58.271378"
   version="1.1"
   id="svg8"
   inkscape:version="0.92.2 (5c3e80d, 2017-08-06)"
   sodipodi:docname="RP_logo.svg">
  <defs
     id="defs2" />
  <sodipodi:namedview
     id="base"
     pagecolor="#ffffff"
     bordercolor="#666666"
     borderopacity="1.0"
     inkscape:pageopacity="0.0"
     inkscape:pageshadow="2"
     inkscape:zoom="0.98994949"
     inkscape:cx="-44.597834"
     inkscape:cy="288.3843"
     inkscape:document-units="mm"
     inkscape:current-layer="layer1"
     showgrid="false"
     inkscape:window-width="1920"
     inkscape:window-height="1001"
     inkscape:window-x="-9"
     inkscape:window-y="-9"
     inkscape:window-maximized="1"
     fit-margin-top="0"
     fit-margin-left="0"
     fit-margin-right="0"
     fit-margin-bottom="0" />
  <metadata
     id="metadata5">
    <rdf:RDF>
      <cc:Work
         rdf:about="">
        <dc:format>image/svg+xml</dc:format>
        <dc:type
           rdf:resource="http://purl.org/dc/dcmitype/StillImage" />
        <dc:title />
      </cc:Work>
    </rdf:RDF>
  </metadata>
  <g
     inkscape:label="Layer 1"
     inkscape:groupmode="layer"
     id="layer1"
     transform="translate(-14.362947,-180.14869)">
    <g
       id="g4532">
      <path
         inkscape:connector-curvature="0"
         id="path4722-3-1-3"
         transform="scale(0.26458333)"
         d="M 164.39258,680.87695 A 110.10662,110.10662 0 0 0 54.285156,790.98438 110.10662,110.10662 0 0 0 160.38672,900.95117 v 0.16406 h 9.44922 551.70703 9.44922 V 882.2168 H 721.54297 225.97852 A 110.10662,110.10662 0 0 0 274.49805,790.98438 110.10662,110.10662 0 0 0 164.39258,680.87695 Z m 0,9.66016 a 31.969919,31.969919 0 0 1 31.9707,31.96875 31.969919,31.969919 0 0 1 -31.9707,31.9707 31.969919,31.969919 0 0 1 -31.9707,-31.9707 31.969919,31.969919 0 0 1 31.9707,-31.96875 z m -58.54883,34.24609 a 31.969919,31.969919 0 0 1 15.23047,4.27539 31.969919,31.969919 0 0 1 11.70117,43.67188 31.969919,31.969919 0 0 1 -43.671874,11.70117 31.969919,31.969919 0 0 1 -11.701172,-43.67187 31.969919,31.969919 0 0 1 26.177736,-15.94922 31.969919,31.969919 0 0 1 2.26367,-0.0274 z m 117.09766,0.002 a 31.969919,31.969919 0 0 1 28.4414,15.97461 31.969919,31.969919 0 0 1 -11.70117,43.67187 31.969919,31.969919 0 0 1 -43.67187,-11.70117 31.969919,31.969919 0 0 1 11.70117,-43.67188 31.969919,31.969919 0 0 1 15.23047,-4.27343 z m -68.72461,41.4316 a 7.4498748,7.4498748 0 0 1 6.62695,3.72265 7.4498748,7.4498748 0 0 1 -2.72656,10.17578 7.4498748,7.4498748 0 0 1 -10.17578,-2.72656 7.4498748,7.4498748 0 0 1 2.72656,-10.17578 7.4498748,7.4498748 0 0 1 3.54883,-0.99609 z m 20.35156,0 a 7.4498748,7.4498748 0 0 1 3.54883,0.99609 7.4498748,7.4498748 0 0 1 2.72656,10.17578 7.4498748,7.4498748 0 0 1 -10.17578,2.72656 7.4498748,7.4498748 0 0 1 -2.72656,-10.17578 7.4498748,7.4498748 0 0 1 6.09961,-3.71679 7.4498748,7.4498748 0 0 1 0.52734,-0.006 z m -30.17578,17.31836 a 7.4498748,7.4498748 0 0 1 7.44922,7.44922 7.4498748,7.4498748 0 0 1 -7.44922,7.44921 7.4498748,7.4498748 0 0 1 -7.44922,-7.44921 7.4498748,7.4498748 0 0 1 7.44922,-7.44922 z m 20,0 a 7.4498748,7.4498748 0 0 1 7.44922,7.44922 7.4498748,7.4498748 0 0 1 -7.44922,7.44921 7.4498748,7.4498748 0 0 1 -7.44922,-7.44921 7.4498748,7.4498748 0 0 1 7.44922,-7.44922 z m 20,0 a 7.4498748,7.4498748 0 0 1 7.44922,7.44922 7.4498748,7.4498748 0 0 1 -7.44922,7.44921 7.4498748,7.4498748 0 0 1 -7.44922,-7.44921 7.4498748,7.4498748 0 0 1 7.44922,-7.44922 z m -80.0586,9.72656 a 31.969919,31.969919 0 0 1 28.44141,15.97656 31.969919,31.969919 0 0 1 -11.70117,43.67188 31.969919,31.969919 0 0 1 -43.671876,-11.70118 31.969919,31.969919 0 0 1 11.701172,-43.67187 31.969919,31.969919 0 0 1 15.230464,-4.27539 z m 120.11719,0 a 31.969919,31.969919 0 0 1 15.23047,4.27539 31.969919,31.969919 0 0 1 11.70117,43.67187 31.969919,31.969919 0 0 1 -43.67187,11.70118 31.969919,31.969919 0 0 1 -11.70117,-43.67188 31.969919,31.969919 0 0 1 26.17773,-15.94922 31.969919,31.969919 0 0 1 2.26367,-0.0273 z m -69.88281,7.5957 a 7.4498748,7.4498748 0 0 1 3.54883,0.9961 7.4498748,7.4498748 0 0 1 2.72656,10.17578 7.4498748,7.4498748 0 0 1 -10.17578,2.72656 7.4498748,7.4498748 0 0 1 -2.72656,-10.17578 7.4498748,7.4498748 0 0 1 6.09961,-3.7168 7.4498748,7.4498748 0 0 1 0.52734,-0.006 z m 19.64844,0 a 7.4498748,7.4498748 0 0 1 6.62695,3.72266 7.4498748,7.4498748 0 0 1 -2.72656,10.17578 7.4498748,7.4498748 0 0 1 -10.17578,-2.72656 7.4498748,7.4498748 0 0 1 2.72656,-10.17578 7.4498748,7.4498748 0 0 1 3.54883,-0.9961 z m -9.82422,26.63477 a 31.969919,31.969919 0 0 1 31.9707,31.9707 31.969919,31.969919 0 0 1 -31.9707,31.96875 31.969919,31.969919 0 0 1 -31.9707,-31.96875 31.969919,31.969919 0 0 1 31.9707,-31.9707 z m 56.96484,57.55859 h 5.36328 13.22852 6.61328 v 13.22852 h -6.61328 -13.22852 -6.61523 v -12.46094 a 110.10662,110.10662 0 0 0 1.25195,-0.76758 z m 38.4336,0 h 6.61328 13.22851 6.61524 v 13.22852 h -6.61524 -13.22851 -6.61328 z m 39.68554,0 h 6.61328 13.22852 6.61328 v 13.22852 h -6.61328 -13.22852 -6.61328 z m 39.6836,0 h 6.61523 13.22852 6.61328 v 13.22852 h -6.61328 -13.22852 -6.61523 z m 39.68554,0 h 6.61524 13.22851 6.61328 v 13.22852 h -6.61328 -13.22851 -6.61524 z m 39.68555,0 h 6.61328 13.22852 6.61523 v 13.22852 h -6.61523 -13.22852 -6.61328 z m 39.68555,0 h 6.61328 13.22851 6.61329 v 13.22852 h -6.61329 -13.22851 -6.61328 z m 39.68359,0 h 6.61523 13.22852 6.61328 v 13.22852 h -6.61328 -13.22852 -6.61523 z m 39.68555,0 h 6.61523 13.22656 6.61524 v 13.22852 h -6.61524 -13.22656 -6.61523 z m 39.68554,0 h 6.61329 13.22851 6.61524 v 13.22852 h -6.61524 -13.22851 -6.61329 z m 39.68555,0 h 6.61328 13.22852 6.61328 v 13.22852 h -6.61328 -13.22852 -6.61328 z m 39.68359,0 h 6.61524 13.22852 6.61328 v 13.22852 h -6.61328 -13.22852 -6.61524 z m 39.68555,0 h 6.61524 13.22656 6.61523 v 13.22852 h -6.61523 -13.22656 -6.61524 z m -489.44922,7.49219 v 5.73633 h -6.61328 -11.57812 a 110.10662,110.10662 0 0 0 18.1914,-5.73633 z"
         style="color:#000000;font-style:normal;font-variant:normal;font-weight:normal;font-stretch:normal;font-size:medium;line-height:normal;font-family:sans-serif;font-variant-ligatures:normal;font-variant-position:normal;font-variant-caps:normal;font-variant-numeric:normal;font-variant-alternates:normal;font-feature-settings:normal;text-indent:0;text-align:start;text-decoration:none;text-decoration-line:none;text-decoration-style:solid;text-decoration-color:#000000;letter-spacing:normal;word-spacing:normal;text-transform:none;writing-mode:lr-tb;direction:ltr;text-orientation:mixed;dominant-baseline:auto;baseline-shift:baseline;text-anchor:start;white-space:normal;shape-padding:0;clip-rule:nonzero;display:inline;overflow:visible;visibility:visible;opacity:1;isolation:auto;mix-blend-mode:normal;color-interpolation:sRGB;color-interpolation-filters:linearRGB;solid-color:#000000;solid-opacity:1;vector-effect:none;fill:#45b3bf;fill-opacity:1;fill-rule:nonzero;stroke:none;stroke-width:18.89763832;stroke-linecap:square;stroke-linejoin:miter;stroke-miterlimit:4;stroke-dasharray:none;stroke-dashoffset:0;stroke-opacity:1;color-rendering:auto;image-rendering:auto;shape-rendering:auto;text-rendering:auto;enable-background:accumulate" />
      <flowRoot
         transform="matrix(0.52650349,0,0,0.42122862,-55.82706,-214.29802)"
         style="font-style:normal;font-weight:normal;font-size:40px;line-height:1.25;font-family:sans-serif;letter-spacing:0px;word-spacing:0px;fill:#45b3bf;fill-opacity:0.94117647;stroke:none"
         id="flowRoot4794"
         xml:space="preserve"><flowRegion
           style="fill:#45b3bf;fill-opacity:0.94117647"
           id="flowRegion4796"><rect
             style="fill:#45b3bf;fill-opacity:0.94117647"
             y="926.04504"
             x="249.50768"
             height="167.18025"
             width="351.02802"
             id="rect4798" /></flowRegion><flowPara
           style="font-style:normal;font-variant:normal;font-weight:normal;font-stretch:normal;font-size:85.33333588px;font-family:'Sitka Text';-inkscape-font-specification:'Sitka Text';fill:#45b3bf;fill-opacity:0.94117647"
           id="flowPara4800">REEL</flowPara></flowRoot>      <flowRoot
         transform="matrix(0.3669394,0,0,0.29356952,-15.342842,-64.885077)"
         style="font-style:normal;font-weight:normal;font-size:40px;line-height:1.25;font-family:sans-serif;letter-spacing:0px;word-spacing:0px;fill:#45b3bf;fill-opacity:0.94117647;stroke:none"
         id="flowRoot4794-6"
         xml:space="preserve"><flowRegion
           style="fill:#45b3bf;fill-opacity:0.94117647"
           id="flowRegion4796-2"><rect
             style="fill:#45b3bf;fill-opacity:0.94117647"
             y="926.04504"
             x="249.50768"
             height="167.18025"
             width="351.02802"
             id="rect4798-2" /></flowRegion><flowPara
           style="font-style:normal;font-variant:normal;font-weight:normal;font-stretch:normal;font-size:85.33333588px;font-family:'Sitka Text';-inkscape-font-specification:'Sitka Text';fill:#45b3bf;fill-opacity:0.94117647"
           id="flowPara4800-2">PICKER</flowPara></flowRoot>    </g>
  </g>
</svg>
